<?xml version="1.0" encoding="UTF-8" standalone="no"?>
<svg
   fill="#000000"
   viewBox="0 0 50 50"
   width="500px"
   height="500px"
   version="1.1"
   id="svg12"
   sodipodi:docname="icons8-info.svg"
   inkscape:version="1.1.1 (c3084ef, 2021-09-22)"
   xmlns:inkscape="http://www.inkscape.org/namespaces/inkscape"
   xmlns:sodipodi="http://sodipodi.sourceforge.net/DTD/sodipodi-0.dtd"
   xmlns="http://www.w3.org/2000/svg"
   xmlns:svg="http://www.w3.org/2000/svg">
  <defs
     id="defs16" />
  <sodipodi:namedview
     id="namedview14"
     pagecolor="#ffffff"
     bordercolor="#666666"
     borderopacity="1.0"
     inkscape:pageshadow="2"
     inkscape:pageopacity="0.0"
     inkscape:pagecheckerboard="true"
     showgrid="false"
     inkscape:zoom="1.438"
     inkscape:cx="237.13491"
     inkscape:cy="252.78164"
     inkscape:window-width="1680"
     inkscape:window-height="997"
     inkscape:window-x="0"
     inkscape:window-y="25"
     inkscape:window-maximized="1"
     inkscape:current-layer="svg12" />
  <g
     id="g2094"
     style="fill:#000000"
     inkscape:export-filename="/Users/tobiassenoner/Documents/projects/dayOfDate/img/info_white.png"
     inkscape:export-xdpi="4.173913"
     inkscape:export-ydpi="4.173913">
    <path
       id="path10"
       style="stroke-width:1;fill:#000000"
       d="m 24.930459,2 c -12.690705,0 -23,10.309295 -23,23 0,12.690705 10.309295,23 23,23 12.690705,0 23,-10.309295 23,-23 0,-12.690705 -10.309295,-23 -23,-23 z" />
  </g>
  <path
     d="M 25,4 C 36.609824,4 46,13.390176 46,25 46,36.609824 36.609824,46 25,46 13.390176,46 4,36.609824 4,25 4,13.390176 13.390176,4 25,4 Z"
     id="path2046"
     style="fill:#ffffff" />
  <path
     d="m 21,21 v 2 h 1 1 v 13 h -1 -1 v 2 h 1 1 4 1 1 V 36 H 28 27 V 21 h -1 -4 z"
     id="path2050"
     style="fill:#000000" />
  <path
     d="m 25,11 a 3,3 0 0 0 -3,3 3,3 0 0 0 3,3 3,3 0 0 0 3,-3 3,3 0 0 0 -3,-3 z"
     id="path2048"
     style="fill:#000000" />
</svg>
